Coordinates
version=1
nRows=12
nColumns=24
inDegrees=yes

Units are S.I. units (second, meters, Newtons, ...)
Angles are in degrees.

endheader
time	pelvis_tilt	pelvis_list	pelvis_rotation	pelvis_tx	pelvis_ty	pelvis_tz	hip_flexion_r	hip_adduction_r	hip_rotation_r	knee_angle_r	ankle_angle_r	subtalar_angle_r	mtp_angle_r	hip_flexion_l	hip_adduction_l	hip_rotation_l	knee_angle_l	ankle_angle_l	subtalar_angle_l	mtp_angle_l	lumbar_extension	lumbar_bending	lumbar_rotation
     15.30000000	     -1.11083448	     -3.63539707	   -268.45922738	      0.02641721	      0.13543355	     -1.91340723	      1.24657414	      1.84258269	    -16.15309876	     -9.41519315	      4.24476792	     -3.66755136	      5.25104710	     26.81585031	     -5.60313723	     -6.77608397	    -48.77564516	     -5.98115212	     11.31435442	     14.47343287	     -7.73456253	     -4.19403019	      2.52328057
     15.30500000	     -1.17563795	     -3.71061093	   -268.65608341	      0.02674539	      0.13502108	     -1.91272766	      0.82431372	      1.83778167	    -16.09067388	     -9.11071548	      4.91576910	     -3.19804124	      3.63077812	     27.19360956	     -5.41510595	     -6.79645071	    -47.50457336	     -5.58465206	     11.08375431	     14.23191177	     -7.69918487	     -4.34112949	      2.88828109
     15.31000000	     -1.17908648	     -3.78245081	   -268.82106813	      0.02689258	      0.13452841	     -1.91215862	      0.39159613	      1.89436695	    -16.01512778	     -8.84513951	      5.13671388	     -3.11701793	      3.65332967	     27.55590988	     -5.27908303	     -6.75341497	    -46.21476115	     -5.26300504	     10.93939482	     14.23888035	     -7.66814223	     -4.38028148	      3.15336497
     15.31500000	     -1.18928442	     -3.84308251	   -268.99261845	      0.02718078	      0.13404311	     -1.91145652	     -0.03073447	      1.93844706	    -16.08427369	     -8.55348764	      5.14710674	     -2.90144378	      3.63517692	     27.88792994	     -5.17245044	     -6.75890679	    -44.86517139	     -4.98729274	     10.80589977	     14.19164337	     -7.66179887	     -4.44619416	      3.46264030
     15.32000000	     -1.19223967	     -3.90686585	   -269.14492912	      0.02744789	      0.13343823	     -1.91076664	     -0.44412018	      1.99337722	    -15.98821839	     -8.33734849	      5.49019064	     -2.80674046	      3.69487421	     28.18029580	     -5.03544733	     -6.60430518	    -43.47950012	     -4.60954512	     10.70367529	     14.12495981	     -7.64450477	     -4.52327429	      3.71985682
     15.32500000	     -1.18458756	     -4.02078702	   -269.28326825	      0.02759000	      0.13266837	     -1.91002165	     -0.77666085	      2.01042467	    -16.26113645	     -8.10201717	      5.63993713	     -2.21617527	      3.77147153	     28.54718470	     -4.90199207	     -6.48563618	    -42.07112021	     -4.29144680	     10.47907568	     13.69863604	     -7.57644623	     -4.59368217	      4.16251495
     15.33000000	     -1.18251714	     -4.07683540	   -269.41938380	      0.02796754	      0.13193660	     -1.90923635	     -1.18278637	      2.09121696	    -16.03347668	     -7.92844209	      5.94374180	     -2.32281283	      3.84838388	     28.81463260	     -4.79617400	     -6.39379879	    -40.59922896	     -3.98295121	     10.31754137	     13.59990275	     -7.60569986	     -4.64397027	      4.28484221
     15.33500000	     -1.14400268	     -4.18238161	   -269.57737962	      0.02805884	      0.13104564	     -1.90859827	     -1.52836356	      2.17289022	    -15.91677480	     -7.74588107	      6.24538490	     -2.31935409	      3.75288237	     29.11716267	     -4.68850122	     -6.21512461	    -39.12652140	     -3.23638668	      9.83953816	     11.13781689	     -7.53837833	     -4.65990563	      4.64502996
     15.34000000	     -1.10698741	     -4.22264909	   -269.70854047	      0.02824694	      0.13018472	     -1.90793599	     -1.95886286	      2.26042481	    -15.82742957	     -7.54732531	      6.50572944	     -2.27132774	      3.78358889	     29.31207672	     -4.61587184	     -6.07627282	    -37.59368642	     -2.99490939	      9.64730399	     11.14756977	     -7.56684473	     -4.66330142	      4.81458028
     15.34500000	     -1.07432141	     -4.29768451	   -269.84475966	      0.02839232	      0.12923876	     -1.90728042	     -2.31740764	      2.32712666	    -15.75807616	     -7.40940704	      6.78770967	     -2.16353785	      3.77260004	     29.52837428	     -4.52182497	     -5.91513719	    -36.02540097	     -2.81383444	      9.22697019	     11.01595461	     -7.53883076	     -4.70124815	      5.15678518
     15.35000000	     -1.02861879	     -4.37247646	   -269.98207987	      0.02851478	      0.12822308	     -1.90659522	     -2.68805988	      2.41233758	    -15.66579585	     -7.24938551	      7.06395669	     -2.10849698	      3.76541192	     29.72765155	     -4.44843076	     -5.74253876	    -34.42209636	     -2.60765965	      8.78236688	     10.79384126	     -7.52518877	     -4.71611368	      5.43298669
     15.35500000	     -1.00366532	     -4.39892192	   -270.11731087	      0.02862335	      0.12723170	     -1.90598007	     -3.11457234	      2.46853668	    -15.52807911	     -7.10046311	      7.28352939	     -2.08905571	      3.78054596	     29.82395998	     -4.37156920	     -5.62187083	    -32.76399444	     -2.36104505	      8.51803069	     10.69759499	     -7.56678571	     -4.71874626	      5.58353394
